<svg xmlns="http://www.w3.org/2000/svg" width="10.979" height="6.545" viewBox="0 0 10.979 6.545">
  <path id="Path_28187" data-name="Path 28187" d="M5.49,98.725a6.849,6.849,0,0,0-5.4,3.012.435.435,0,0,0,0,.519,6.845,6.845,0,0,0,5.4,3.014,6.849,6.849,0,0,0,5.4-3.012.435.435,0,0,0,0-.519A6.846,6.846,0,0,0,5.49,98.725Zm.15,5.577a2.309,2.309,0,1,1,2.154-2.154A2.311,2.311,0,0,1,5.64,104.3Zm-.07-1.065a1.243,1.243,0,1,1,1.161-1.161A1.241,1.241,0,0,1,5.57,103.237Z" transform="translate(0 -98.725)" fill="#484848"/>
</svg>
