<svg xmlns="http://www.w3.org/2000/svg" width="11.475" height="14.917" viewBox="0 0 11.475 14.917">
  <g id="Mesquitas-login_page-password-v1" data-name="Mesquitas-login page-password-v1" transform="translate(-39.286 -29.018)">
    <path id="Path_27547" data-name="Path 27547" d="M49.4,644.322H40.642a1.356,1.356,0,0,0-1.356,1.356v6.467a1.356,1.356,0,0,0,1.356,1.356h8.763a1.356,1.356,0,0,0,1.356-1.356v-6.467A1.356,1.356,0,0,0,49.4,644.322ZM45.61,649.03a.6.6,0,0,1,.017.141v1.16a.607.607,0,0,1-1.215,0v-1.16a.6.6,0,0,1,.018-.145,1.153,1.153,0,1,1,1.18,0Z" transform="translate(0 -609.567)" fill="#007168"/>
    <path id="Path_27548" data-name="Path 27548" d="M229.25,29.246a3.83,3.83,0,0,0-1.326-.228,4.175,4.175,0,0,0-1.387.228c-2.019.735-2.752,2.547-2.651,4.947h1.676c-.094-1.654.333-2.768,1.377-3.244a2.305,2.305,0,0,1,1.909,0c1.044.476,1.471,1.59,1.377,3.244H231.9C232,31.794,231.269,29.981,229.25,29.246Z" transform="translate(-182.87 0)" fill="#007168"/>
  </g>
</svg>
